<?xml version="1.0" encoding="UTF-8"?>
<svg id="Layer_1" data-name="Layer 1" xmlns="http://www.w3.org/2000/svg" xmlns:xlink="http://www.w3.org/1999/xlink" viewBox="0 0 3367.9 3367.9">
  <defs>
    <style>
      .cls-1 {
        fill: url(#linear-gradient);
      }

      .cls-2 {
        fill: #fff;
      }
    </style>
    <linearGradient id="linear-gradient" x1="815.74" y1="4111.77" x2="2347.91" y2="-172.72" gradientUnits="userSpaceOnUse">
      <stop offset="0" stop-color="#011450"/>
      <stop offset=".03" stop-color="#07165b"/>
      <stop offset=".19" stop-color="#2f22a0"/>
      <stop offset=".33" stop-color="#4b2cd1"/>
      <stop offset=".43" stop-color="#5d31f0"/>
      <stop offset=".49" stop-color="#6434fc"/>
      <stop offset=".96" stop-color="#a085eb"/>
    </linearGradient>
  </defs>
  <rect class="cls-1" width="3367.9" height="3367.9"/>
  <path class="cls-2" d="M3105.81,1412.56h-34.75v-451.56c0-186.23-151.51-337.74-337.74-337.74h-493.25c-235.53,0-427.15,191.62-427.15,427.16s191.62,427.16,427.15,427.16h765.97v166.99c0,251.82-98.07,488.57-276.13,666.64-178.07,178.07-414.82,276.13-666.64,276.13h-446.91v-64.29h-834.77v44.67h-338.56l-35.55-30.31c-7.88-6.72-19.48-6.72-27.36,0l-80.97,69.04c-8.24,7.03-8.24,19.76,0,26.79l80.97,69.04c7.88,6.72,19.48,6.72,27.36,0l35.55-30.31h338.56v44.67h834.77v-64.3h446.91c269.19,0,522.26-104.83,712.61-295.17,190.34-190.34,295.17-443.42,295.17-712.61v-166.99h34.75c96.43,0,186.34-28.22,262.09-76.72v-79.67c-72.08,57.17-163.16,91.37-262.09,91.37ZM3006.05,1412.56h-765.97c-199.69,0-362.14-162.46-362.14-362.14s162.46-362.14,362.14-362.14h493.25c150.38,0,272.73,122.34,272.73,272.72v451.56Z"/>
</svg>