<?xml version="1.0" encoding="UTF-8"?>
<svg id="Layer_1" data-name="Layer 1" xmlns="http://www.w3.org/2000/svg" viewBox="0 0 2388.92 1040.32">
  <defs>
    <style>
      .cls-1 {
        fill: #6434fc;
      }
    </style>
  </defs>
  <path class="cls-1" d="M2065.49,516.07l-19.22-16.39c-1.87-1.6-4.62-1.6-6.49,0l-8.44,7.2h-80.38v-10.61h-198.19v13.95h-212.98v-106.71c0-44.21-35.97-80.19-80.19-80.19h-111.68c-55.78,0-101.17,45.38-101.17,101.17s45.38,101.16,101.17,101.16h176.43v75.34c0,55.2-44.91,100.11-100.11,100.11h-201.38c-42.15,0-76.43-34.29-76.43-76.43v-140.24c17.44-20.27,27.99-46.62,27.99-75.39,0-11.97-9.74-21.71-21.71-21.71s-21.71,9.74-21.71,21.71v69.44c-18.27,19.02-43.94,30.87-72.33,30.87h-8.25v-107.21c0-44.21-35.97-80.19-80.19-80.19h-117.11c-55.92,0-101.41,45.5-101.41,101.42s45.49,101.42,101.41,101.42h181.86v39.65c0,59.79-23.28,116-65.56,158.27s-98.49,65.56-158.27,65.56h-174.99v-15.26h-198.19v10.61h-80.38l-8.44-7.2c-1.87-1.6-4.62-1.6-6.5,0l-19.22,16.39c-1.96,1.67-1.96,4.69,0,6.36l19.22,16.39c1.87,1.6,4.62,1.6,6.5,0l8.44-7.2h80.38v10.61h198.19v-15.27h174.99c63.91,0,124-24.89,169.19-70.08,45.19-45.19,70.08-105.28,70.08-169.19v-39.65h8.25c27.34,0,52.5-9.53,72.33-25.44v125.33c0,50.66,41.21,91.87,91.87,91.87h201.38c63.71,0,115.55-51.83,115.55-115.55v-75.34h212.98v16.58h198.19v-10.61h80.38l8.44,7.2c1.87,1.6,4.62,1.6,6.49,0l19.22-16.39c1.96-1.67,1.96-4.69,0-6.36ZM1146.42,409.04c0-3.46,2.82-6.28,6.28-6.28s6.28,2.81,6.28,6.28c0,17.6-4.56,34.16-12.55,48.55v-48.55ZM1034.98,509.35h-181.86c-47.41,0-85.98-38.57-85.98-85.98s38.57-85.98,85.98-85.98h117.11c35.7,0,64.75,29.05,64.75,64.75v107.21ZM1524.35,510.22h-176.43c-47.27,0-85.73-38.46-85.73-85.73s38.46-85.73,85.73-85.73h111.68c35.7,0,64.75,29.05,64.75,64.75v106.71Z"/>
  <g>
    <path class="cls-1" d="M1714.31,584.08h-80.27c-24.48,0-36.45,10.66-36.45,31.99v12.18c0,21.07,11.97,31.73,36.45,31.73h63.85v15.23c0,12.95-6.12,19.55-18.62,19.55h-119.5c-9.84,0-14.9,3.81-14.9,11.93,0,7.62,5.06,11.68,14.9,11.68h113.64c32.72,0,49.22-15.99,49.22-47.98v-8.88c0-15.99-9.31-24.37-27.94-24.37h-61.99c-6.92,0-10.38-2.79-10.38-8.12v-12.69c0-5.84,3.46-8.63,10.38-8.63h81.6c8.78,0,13.3-4.32,13.3-12.69,0-7.36-4.52-10.92-13.3-10.92Z"/>
    <path class="cls-1" d="M1844.21,584.08h-83.54c-10.38,0-15.7,3.81-15.7,11.68s5.32,11.93,15.7,11.93h81.15v17.77l-77.95,15.23c-12.51,2.54-21.02,11.17-21.02,23.61v42.14c0,6.6,5.59,11.93,12.24,11.93h111.74v-111.7c0-11.17-10.38-22.59-22.62-22.59ZM1841.82,694.76h-74.23v-32.24l74.23-14.22v46.46Z"/>
    <path class="cls-1" d="M2034.43,584.08c-8.25,0-12.5,3.81-12.5,11.68v92.15c0,4.57-2.66,6.85-7.71,6.85h-35.65v-99.01c0-7.87-3.99-11.68-12.24-11.68s-12.51,3.81-12.51,11.68v99.01h-36.71c-4.26,0-6.65-3.05-6.65-9.65v-89.36c0-7.87-4.26-11.68-12.5-11.68s-12.24,3.81-12.24,11.68v89.36c0,22.34,11.44,33.25,34.06,33.25h92.32c23.15,0,34.85-10.91,34.85-33.25v-89.36c0-7.87-4.26-11.68-12.5-11.68Z"/>
  </g>
</svg>